<svg xmlns="http://www.w3.org/2000/svg" viewBox="0 0 64 64"><circle cx="32" cy="32" r="32" fill="#72ABE3"/><path d="M187.12,362.62a21.88,21.88,0,0,1-9.7-1.86c-4.19-2-6.38-5.48-7.24-9.93-.09-.45.15-.49.47-.57l9.35-2.12.56-.13c.27-.07.44,0,.51.29.88,3.3,3.36,4.27,6.25,4.25a5.27,5.27,0,0,0,2.37-.42,1.59,1.59,0,0,0,1-1.41,1.41,1.41,0,0,0-.94-1.4,53.43,53.43,0,0,0-5.19-2,33.26,33.26,0,0,1-7.37-3.19c-2.42-1.62-4.52-3.6-5-6.64a11,11,0,0,1,4.08-11,16.29,16.29,0,0,1,9-3.47,19.92,19.92,0,0,1,9.06,1.06,14.2,14.2,0,0,1,8,8.08c.17.39,0,.52-.34.62-1.38.37-2.75.77-4.12,1.16-1.83.51-3.66,1-5.48,1.55a.7.7,0,0,1-1-.38,4.52,4.52,0,0,0-4.43-2.47,3,3,0,0,0-1.18.27,1.54,1.54,0,0,0-.74,2,1.64,1.64,0,0,0,.54.63,7.32,7.32,0,0,0,1.39.65c3.06,1.29,6.24,2.31,9.2,3.85a15,15,0,0,1,5.87,5,10.46,10.46,0,0,1-3.18,14.49,19.86,19.86,0,0,1-8.84,2.9C189.07,362.58,188.07,362.58,187.12,362.62Z" transform="translate(-155.5 -310.88)" fill="#fff"/></svg>